<svg xmlns="http://www.w3.org/2000/svg" width="244" height="247" viewBox="0 0 244 247" fill="none">
  <rect width="244" height="247" fill="#F9F9F7"/>

  <g stroke-linecap="square">
    <g stroke="#E7E3DB" stroke-width="1">
      <path d="M20 0V247"/>
      <path d="M60 0V247"/>
      <path d="M100 0V247"/>
      <path d="M140 0V247"/>
      <path d="M180 0V247"/>
      <path d="M220 0V247"/>
      <path d="M0 20H244"/>
      <path d="M0 60H244"/>
      <path d="M0 100H244"/>
      <path d="M0 140H244"/>
      <path d="M0 180H244"/>
      <path d="M0 220H244"/>
    </g>
    <g stroke="#E0DAD0" stroke-width="1">
      <path d="M0 0.5H244"/>
      <path d="M0 40.5H244"/>
      <path d="M0 80.5H244"/>
      <path d="M0 120.5H244"/>
      <path d="M0 160.5H244"/>
      <path d="M0 200.5H244"/>
      <path d="M0.5 0V247"/>
      <path d="M40.5 0V247"/>
      <path d="M80.5 0V247"/>
      <path d="M120.5 0V247"/>
      <path d="M160.5 0V247"/>
      <path d="M200.5 0V247"/>
      <path d="M240.5 0V247"/>
    </g>
  </g>

  <rect x="80" y="78" width="84" height="84" rx="3" stroke="#5B63FF" stroke-width="2"/>
  <text
    x="122"
    y="124"
    text-anchor="middle"
    dominant-baseline="middle"
    fill="#222222"
    font-family="Arial, Helvetica, sans-serif"
    font-size="16"
    font-weight="400"
  >bathroom</text>
</svg>
